<?xml version="1.0" encoding="UTF-8" standalone="no"?>
<!-- Created with Inkscape (http://www.inkscape.org/) -->

<svg
   xmlns:dc="http://purl.org/dc/elements/1.1/"
   xmlns:cc="http://creativecommons.org/ns#"
   xmlns:rdf="http://www.w3.org/1999/02/22-rdf-syntax-ns#"
   xmlns:svg="http://www.w3.org/2000/svg"
   xmlns="http://www.w3.org/2000/svg"
   xmlns:sodipodi="http://sodipodi.sourceforge.net/DTD/sodipodi-0.dtd"
   xmlns:inkscape="http://www.inkscape.org/namespaces/inkscape"
   version="1.1"
   id="svg2"
   width="1920"
   height="1080"
   viewBox="0 0 1920 1080"
   sodipodi:docname="arrow-up.svg"
   inkscape:version="0.92.3 (2405546, 2018-03-11)">
  <title
     id="title34">arow-up Made By - Dhruva Shaw</title>
  <metadata
     id="metadata8">
    <rdf:RDF>
      <cc:Work
         rdf:about="">
        <dc:format>image/svg+xml</dc:format>
        <dc:type
           rdf:resource="http://purl.org/dc/dcmitype/StillImage" />
        <dc:title>arow-up Made By - Dhruva Shaw</dc:title>
      </cc:Work>
    </rdf:RDF>
  </metadata>
  <defs
     id="defs6" />
  <sodipodi:namedview
     pagecolor="#ffffff"
     bordercolor="#666666"
     borderopacity="1"
     objecttolerance="10"
     gridtolerance="10"
     guidetolerance="10"
     inkscape:pageopacity="0"
     inkscape:pageshadow="2"
     inkscape:window-width="1280"
     inkscape:window-height="705"
     id="namedview4"
     showgrid="false"
     inkscape:zoom="0.20918576"
     inkscape:cx="960.00002"
     inkscape:cy="540.00001"
     inkscape:window-x="-4"
     inkscape:window-y="-4"
     inkscape:window-maximized="1"
     inkscape:current-layer="svg2" />
  <path
     id="path3715"
     style="fill:#000000"
     d="m 912.0625,81.371094 c -24.24074,0 -48.48145,2.066513 -71.5,6.199218 -12.3209,2.21206 -33.6791,7.813622 -47.5,12.458988 -6.6,2.21833 -13.575,4.45618 -15.5,4.97265 -3.7382,1.00296 -18.7002,7.36615 -19.7207,8.38672 -0.3363,0.33625 -1.20354,0.61133 -1.92774,0.61133 -2.978,0 -35.9353,17.0959 -50.4082,26.14844 -54.1892,33.89429 -92.55436,71.0522 -132.44336,128.27734 -16.5717,23.77403 -43.78311,77.41669 -50.00391,98.57422 -0.7277,2.475 -2.49037,7.55847 -3.91797,11.29688 -1.42768,3.73838 -3.66545,10.71338 -4.97265,15.5 -1.3072,4.7866 -3.49774,12.75312 -4.86914,17.70312 -1.3714,4.95 -3.01836,11.7 -3.66016,15 -0.6418,3.3 -2.49373,12.41847 -4.11523,20.26367 -1.6215,7.8452 -3.18902,17.5202 -3.48242,21.5 -0.2935,3.9798 -0.95977,10.61133 -1.48047,14.73633 -3.8582,30.56403 -3.8582,71.43597 0,102 0.5207,4.125 1.18697,10.75653 1.48047,14.73633 0.2934,3.9798 1.86092,13.6548 3.48242,21.5 1.6215,7.8452 3.47343,16.96367 4.11523,20.26367 0.6418,3.3 2.28876,10.05 3.66016,15 1.3714,4.95 3.56194,12.91651 4.86914,17.70312 1.3072,4.78661 3.54496,11.76162 4.97265,15.5 1.42761,3.73839 3.19027,8.82188 3.91797,11.29688 6.2208,21.15753 33.43221,74.80019 50.00391,98.57422 23.9445,34.35096 41.24603,54.47617 69.73633,81.125 19.9995,18.70677 52.66687,42.26648 77.76367,56.08203 C 731.36,942.72513 754.50806,954 755.91406,954 c 0.7242,0 1.59144,0.27508 1.92774,0.61133 1.0205,1.02057 15.9825,7.38376 19.7207,8.38672 1.925,0.51647 8.9,2.75237 15.5,4.9707 13.8209,4.64536 35.1791,10.24889 47.5,12.46094 7.6334,1.37047 36.4142,4.94499 48,5.96093 v -0.002 c 2.475,0.21709 15.3,0.25949 28.5,0.0918 42.1419,-0.53549 77.6972,-6.30994 114,-18.51172 6.6,-2.21833 13.575,-4.45423 15.5,-4.9707 3.7382,-1.00296 18.7021,-7.36615 19.7227,-8.38672 0.3362,-0.33625 1.2034,-0.61133 1.9277,-0.61133 2.978,0 35.9333,-17.0959 50.4062,-26.14844 54.1892,-33.89429 92.5544,-71.0522 132.4434,-128.27734 16.5718,-23.77403 43.7832,-77.41669 50.0039,-98.57422 0.7277,-2.475 2.4923,-7.55849 3.9199,-11.29688 1.4276,-3.73838 3.6655,-10.71338 4.9727,-15.5 1.3072,-4.7866 3.4977,-12.75312 4.8691,-17.70312 1.3715,-4.95 3.0185,-11.7 3.6602,-15 0.6418,-3.3 2.4938,-12.41847 4.1152,-20.26367 1.6215,-7.8452 3.1889,-17.5202 3.4824,-21.5 0.2934,-3.9798 0.9598,-10.61133 1.4805,-14.73633 1.7207,-13.6317 2.9883,-35.27305 2.9883,-51 0,-15.72695 -1.2676,-37.3683 -2.9883,-51 -0.5207,-4.125 -1.1871,-10.75653 -1.4805,-14.73633 -0.2935,-3.9798 -1.8609,-13.6548 -3.4824,-21.5 -1.6214,-7.8452 -3.4734,-16.96367 -4.1152,-20.26367 -0.6417,-3.3 -2.2887,-10.05 -3.6602,-15 -1.3714,-4.95 -3.5619,-12.91651 -4.8691,-17.70312 -1.3072,-4.78661 -3.5451,-11.76162 -4.9727,-15.5 -1.4276,-3.73839 -3.1922,-8.82188 -3.9199,-11.29688 -6.2207,-21.15753 -33.4321,-74.80019 -50.0039,-98.57422 -23.9445,-34.35096 -41.244,-54.47812 -69.7344,-81.12695 -19.9994,-18.70677 -52.6687,-42.26648 -77.7656,-56.08203 C 1092.7651,125.27302 1069.6188,114 1068.2129,114 c -0.7243,0 -1.5915,-0.27508 -1.9277,-0.61133 -1.0206,-1.02057 -15.9845,-7.38376 -19.7227,-8.38672 -1.925,-0.51647 -8.9,-2.75432 -15.5,-4.97265 -13.8209,-4.645366 -35.1791,-10.246927 -47.5,-12.458988 -23.0185,-4.132705 -47.25926,-6.199218 -71.5,-6.199218 z M 907.5625,147 c 25.6384,0 42.3034,1.53471 60.5,5.57422 6.05,1.34305 12.14176,2.43859 13.53516,2.43359 1.3934,-0.005 7.16341,1.56719 12.82422,3.49219 5.66072,1.925 11.13022,3.5 12.15232,3.5 1.022,0 4.475,1.09166 7.6738,2.42578 3.1987,1.33413 8.9645,3.61667 12.8145,5.07227 3.85,1.45561 9.7085,3.96395 13.0176,5.57422 3.309,1.61027 6.6146,2.92773 7.3457,2.92773 0.731,0 2.5225,0.83344 3.9824,1.85352 1.4599,1.02009 6.5523,3.88002 11.3145,6.35546 4.7622,2.47544 9.8853,5.46702 11.3847,6.64649 1.4995,1.17948 3.305,2.14453 4.0137,2.14453 0.7087,0 3.2356,1.47071 5.6152,3.26758 2.3796,1.79687 6.798,4.83437 9.8184,6.75 3.0203,1.91563 6.1703,4.08846 7,4.83008 0.8296,0.74161 3.9828,3.13955 7.0078,5.32812 14.1021,10.2028 31.709,26.43153 48.5234,44.72656 15.1366,16.46953 17.6109,19.50443 26.9766,33.09766 3.221,4.675 6.3377,8.83029 6.9277,9.23438 0.5899,0.40408 0.718,0.74198 0.2832,0.75 -0.4347,0.008 0.3099,1.20054 1.6543,2.65039 1.3444,1.44986 3.0359,3.81236 3.7598,5.25 0.7238,1.43765 2.8846,5.09023 4.8027,8.11523 1.9181,3.025 3.5234,5.725 3.5664,6 0.1356,0.86961 2.779,5.47834 3.4414,6 0.3491,0.275 2.1864,3.65 4.0821,7.5 1.8957,3.85 4.2729,8.2375 5.2832,9.75 1.0102,1.5125 1.5504,2.75 1.2012,2.75 -0.3492,0 0.9698,3.02229 2.9316,6.7168 1.9618,3.6945 3.5664,7.28887 3.5664,7.98632 0,0.69746 1.3389,3.86069 2.9746,7.03126 1.6356,3.17054 3.1866,6.89062 3.4453,8.26562 0.2588,1.375 1.8436,5.80699 3.5235,9.84961 1.6798,4.04261 3.2424,8.31761 3.4726,9.5 0.2302,1.18238 1.8543,6.42539 3.6094,11.65039 1.7551,5.225 3.3322,10.98193 3.5039,12.79297 0.2884,3.04157 2.458,11.23831 4.5547,17.20703 0.483,1.375 1.0677,4.075 1.2988,6 0.7088,5.90208 2.499,17.20888 3.6426,23 2.4703,12.51003 3.9512,35.54889 3.9512,61.5 0,25.95111 -1.4809,48.98997 -3.9512,61.5 -1.1436,5.79112 -2.9338,17.09792 -3.6426,23 -0.2311,1.925 -0.8158,4.625 -1.2988,6 -2.0967,5.96872 -4.2663,14.16546 -4.5547,17.20703 -0.1717,1.81104 -1.7488,7.56797 -3.5039,12.79297 -1.7551,5.225 -3.3792,10.46801 -3.6094,11.65039 -0.2302,1.18236 -1.7928,5.45739 -3.4726,9.5 -1.6799,4.04262 -3.2647,8.47461 -3.5235,9.84961 -0.2587,1.375 -1.8097,5.09313 -3.4453,8.26367 -1.6357,3.17054 -2.9746,6.33573 -2.9746,7.03321 0,0.69745 -1.6046,4.29182 -3.5664,7.98632 -1.9618,3.69451 -3.2808,6.7168 -2.9316,6.7168 0.3492,0 -0.191,1.2375 -1.2012,2.75 -1.0103,1.5125 -3.3875,5.9 -5.2832,9.75 -1.8957,3.85 -3.733,7.225 -4.0821,7.5 -0.6624,0.52166 -3.3058,5.13039 -3.4414,6 -0.043,0.275 -1.6483,2.975 -3.5664,6 -1.9181,3.025 -4.0789,6.67563 -4.8027,8.11328 -0.7239,1.43764 -2.4154,3.80014 -3.7598,5.25 -1.3444,1.44985 -2.089,2.64437 -1.6543,2.65234 0.4348,0.008 0.3067,0.34592 -0.2832,0.75 -0.59,0.40409 -3.7067,4.55938 -6.9277,9.23438 -9.3657,13.59323 -11.84,16.62813 -26.9766,33.09766 -16.8144,18.29503 -34.4213,34.52376 -48.5234,44.72656 -3.025,2.18857 -6.1782,4.58454 -7.0078,5.32617 -0.8297,0.74162 -3.9797,2.9164 -7,4.83203 -3.0204,1.91563 -7.4388,4.95313 -9.8184,6.75 -2.3796,1.79687 -4.9065,3.26758 -5.6152,3.26758 -0.7087,0 -2.5142,0.96505 -4.0137,2.14453 -1.4994,1.17947 -6.6225,4.16909 -11.3847,6.64453 -4.7622,2.47544 -9.8546,5.33538 -11.3145,6.35547 -1.4599,1.02008 -3.2514,1.85547 -3.9824,1.85547 -0.7311,0 -4.0367,1.31746 -7.3457,2.92773 -3.3091,1.61027 -9.1676,4.11861 -13.0176,5.57422 -3.85,1.4556 -9.6158,3.73814 -12.8145,5.07227 -3.1988,1.33412 -6.6518,2.42578 -7.6738,2.42578 -1.0221,0 -6.4916,1.575 -12.15232,3.5 -5.6608,1.925 -11.43082,3.49523 -12.82422,3.49023 -1.3934,-0.005 -7.48516,1.09055 -13.53516,2.4336 -6.05,1.34306 -16.872,3.1481 -24.05078,4.00976 -8.9682,1.07645 -20.8584,1.52796 -38,1.44336 -26.8982,-0.13267 -40.99412,-1.43311 -58.94922,-5.43945 -6.05,-1.34995 -12.1398,-2.45227 -13.5332,-2.44727 -1.3935,0.005 -7.16352,-1.56523 -12.82422,-3.49023 -5.6608,-1.925 -11.13035,-3.5 -12.15235,-3.5 -1.0221,0 -4.47502,-1.09166 -7.67382,-2.42578 -3.1987,-1.33413 -8.96641,-3.61667 -12.81641,-5.07227 -3.85,-1.45561 -9.70663,-3.96395 -13.01562,-5.57422 C 771.73773,888.31746 768.43227,887 767.70117,887 c -0.731,0 -2.52447,-0.83539 -3.98437,-1.85547 -1.4599,-1.02009 -6.5503,-3.88003 -11.3125,-6.35547 -4.7623,-2.47544 -9.88527,-5.46506 -11.38477,-6.64453 C 739.52003,870.96505 737.71456,870 737.00586,870 c -0.7087,0 -3.23552,-1.47071 -5.61524,-3.26758 -2.37959,-1.79687 -6.79805,-4.83437 -9.81835,-6.75 -3.0204,-1.91563 -6.1704,-4.09041 -7,-4.83203 -0.8297,-0.74163 -3.98477,-3.1376 -7.00977,-5.32617 -14.1021,-10.2028 -31.70708,-26.43153 -48.52148,-44.72656 C 643.90442,788.62813 641.43015,785.59323 632.06445,772 c -3.221,-4.675 -6.33783,-8.83027 -6.92773,-9.23438 -0.59,-0.40408 -0.718,-0.74198 -0.2832,-0.75 0.4348,-0.008 -0.3099,-1.20249 -1.6543,-2.65234 -1.3443,-1.44986 -3.03587,-3.81236 -3.75977,-5.25 -0.7238,-1.43765 -2.88453,-5.08828 -4.80273,-8.11328 -1.9181,-3.025 -3.52341,-5.725 -3.56641,-6 -0.1356,-0.86961 -2.7791,-5.47834 -3.4414,-6 -0.3492,-0.275 -2.18633,-3.65 -4.08203,-7.5 -1.89572,-3.85 -4.27301,-8.2375 -5.28321,-9.75 -1.0103,-1.5125 -1.55037,-2.75 -1.20117,-2.75 0.3493,0 -0.96984,-3.02229 -2.93164,-6.7168 -1.9618,-3.6945 -3.56836,-7.28887 -3.56836,-7.98632 0,-0.69746 -1.33706,-3.86267 -2.97266,-7.03321 -1.6357,-3.17054 -3.18651,-6.88867 -3.44531,-8.26367 -0.2587,-1.375 -1.84364,-5.80699 -3.52344,-9.84961 -1.6799,-4.04261 -3.24245,-8.31762 -3.47265,-9.5 -0.2301,-1.18242 -1.85613,-6.42539 -3.61133,-11.65039 -1.7551,-5.225 -3.33025,-10.98193 -3.50195,-12.79297 -0.2883,-3.04157 -2.45799,-11.23831 -4.55469,-17.20703 -0.483,-1.375 -1.06763,-4.075 -1.29883,-6 -0.7087,-5.90208 -2.50093,-17.20888 -3.64453,-23 -2.4704,-12.51003 -3.94922,-35.54889 -3.94922,-61.5 0,-25.95111 1.47882,-48.98997 3.94922,-61.5 1.1436,-5.79112 2.93583,-17.09792 3.64453,-23 0.2312,-1.925 0.81583,-4.625 1.29883,-6 2.0967,-5.96872 4.26639,-14.16546 4.55469,-17.20703 0.1717,-1.81104 1.74685,-7.56797 3.50195,-12.79297 1.7552,-5.225 3.38123,-10.46801 3.61133,-11.65039 0.2302,-1.18239 1.79275,-5.45739 3.47265,-9.5 1.6798,-4.04262 3.26474,-8.47461 3.52344,-9.84961 0.2588,-1.375 1.80961,-5.0951 3.44531,-8.26562 1.6356,-3.17055 2.97266,-6.33379 2.97266,-7.03126 0,-0.69745 1.60656,-4.29182 3.56836,-7.98632 1.9618,-3.69451 3.28094,-6.7168 2.93164,-6.7168 -0.3492,0 0.19087,-1.2375 1.20117,-2.75 1.0102,-1.5125 3.38735,-5.9 5.28321,-9.75 1.8957,-3.85 3.73283,-7.225 4.08203,-7.5 0.6623,-0.52166 3.3058,-5.13039 3.4414,-6 0.0429,-0.275 1.64831,-2.975 3.56641,-6 1.9182,-3.025 4.07893,-6.67758 4.80273,-8.11523 0.7239,-1.43764 2.41547,-3.80014 3.75977,-5.25 1.3444,-1.44985 2.0891,-2.64239 1.6543,-2.65039 -0.4348,-0.008 -0.3068,-0.34592 0.2832,-0.75 0.5899,-0.40409 3.70673,-4.55938 6.92773,-9.23438 9.3657,-13.59323 11.83997,-16.62813 26.97657,-33.09766 16.8144,-18.29503 34.41938,-34.52376 48.52148,-44.72656 3.025,-2.18857 6.18007,-4.58651 7.00977,-5.32812 0.8296,-0.74162 3.9796,-2.91445 7,-4.83008 3.0203,-1.91563 7.43877,-4.95313 9.81835,-6.75 2.3797,-1.79687 4.90654,-3.26758 5.61524,-3.26758 0.7087,0 2.51417,-0.96505 4.01367,-2.14453 1.4995,-1.17947 6.62247,-4.17105 11.38477,-6.64649 4.7622,-2.47544 9.8526,-5.33537 11.3125,-6.35546 1.4599,-1.02008 3.25337,-1.85352 3.98437,-1.85352 0.7311,0 4.03646,-1.31746 7.34571,-2.92773 3.30898,-1.61027 9.16562,-4.11861 13.01562,-5.57422 3.85,-1.4556 9.61771,-3.73814 12.81641,-5.07227 3.1988,-1.33412 6.65172,-2.42578 7.67382,-2.42578 1.022,0 6.49155,-1.575 12.15235,-3.5 5.6607,-1.925 11.43072,-3.49719 12.82422,-3.49219 1.3934,0.005 7.4832,-1.09054 13.5332,-2.43359 C 865.2591,148.53471 881.9242,147 907.5625,147 Z m -0.56055,102.14648 c -1.77926,0.0286 -5.90497,3.84298 -21.03906,18.92383 -16.0071,15.95086 -19.80457,20.24022 -19.07227,21.54883 0.7389,1.32027 -16.68307,19.23448 -90.76367,93.31836 l -91.67968,91.68164 25.51757,25.48242 25.51758,25.48047 68.04102,-68.04101 68.03906,-68.03907 V 587.25 785 h 39 39 V 578.75195 372.50586 l 71.3711,71.36328 71.3691,71.36524 20.2246,-20.125 20.2247,-20.12305 -111.7051,-112.22656 C 959.60964,301.03544 908.57823,249.99776 907.64453,249.34375 c -0.18365,-0.12863 -0.3884,-0.20136 -0.64258,-0.19727 z M 390.36914,695.49414 c 0.057,0.4231 0.12494,0.88099 0.21094,1.37305 -0.0288,-0.31831 -0.0717,-0.95484 -0.0977,-1.21875 -0.0381,-0.0511 -0.075,-0.10318 -0.11328,-0.1543 z" />
</svg>
